<svg width="22" height="22" viewBox="0 0 22 22" fill="none" xmlns="http://www.w3.org/2000/svg">
<path d="M4.89648 21.8784H0.361328V7.27393H4.89648V21.8784ZM2.62646 5.28174C1.17627 5.28174 0 4.08057 0 2.63037C1.03799e-08 1.93379 0.276716 1.26574 0.769274 0.77318C1.26183 0.280622 1.92988 0.00390625 2.62646 0.00390625C3.32305 0.00390625 3.9911 0.280622 4.48366 0.77318C4.97621 1.26574 5.25293 1.93379 5.25293 2.63037C5.25293 4.08057 4.07617 5.28174 2.62646 5.28174ZM21.8701 21.8784H17.3447V14.769C17.3447 13.0747 17.3105 10.9019 14.9868 10.9019C12.6289 10.9019 12.2676 12.7427 12.2676 14.647V21.8784H7.73731V7.27393H12.0869V9.26611H12.1504C12.7559 8.11865 14.2349 6.90771 16.4414 6.90771C21.0312 6.90771 21.875 9.93018 21.875 13.856V21.8784H21.8701Z" fill="#2B303A"/>
</svg>
