<svg width="23" height="22" viewBox="0 0 23 22" fill="none" xmlns="http://www.w3.org/2000/svg">
<path d="M11.821 5.33081C8.71558 5.33081 6.21069 7.83569 6.21069 10.9412C6.21069 14.0466 8.71558 16.5515 11.821 16.5515C14.9265 16.5515 17.4314 14.0466 17.4314 10.9412C17.4314 7.83569 14.9265 5.33081 11.821 5.33081ZM11.821 14.5886C9.81421 14.5886 8.17358 12.9529 8.17358 10.9412C8.17358 8.92944 9.80933 7.2937 11.821 7.2937C13.8328 7.2937 15.4685 8.92944 15.4685 10.9412C15.4685 12.9529 13.8279 14.5886 11.821 14.5886ZM18.9695 5.10132C18.9695 5.82886 18.3835 6.40991 17.6609 6.40991C16.9334 6.40991 16.3523 5.82397 16.3523 5.10132C16.3523 4.37866 16.9382 3.79272 17.6609 3.79272C18.3835 3.79272 18.9695 4.37866 18.9695 5.10132ZM22.6853 6.42944C22.6023 4.67651 22.2019 3.12378 20.9177 1.84448C19.6384 0.565185 18.0857 0.164795 16.3328 0.0769043C14.5261 -0.0256348 9.11108 -0.0256348 7.30444 0.0769043C5.5564 0.159912 4.00366 0.560303 2.71948 1.8396C1.4353 3.1189 1.03979 4.67163 0.951904 6.42456C0.849365 8.2312 0.849365 13.6462 0.951904 15.4529C1.03491 17.2058 1.4353 18.7585 2.71948 20.0378C4.00366 21.3171 5.55151 21.7175 7.30444 21.8054C9.11108 21.908 14.5261 21.908 16.3328 21.8054C18.0857 21.7224 19.6384 21.322 20.9177 20.0378C22.197 18.7585 22.5974 17.2058 22.6853 15.4529C22.7878 13.6462 22.7878 8.23608 22.6853 6.42944ZM20.3513 17.3914C19.9705 18.3484 19.2332 19.0857 18.2712 19.4714C16.8308 20.0427 13.4128 19.9109 11.821 19.9109C10.2292 19.9109 6.8064 20.0378 5.37085 19.4714C4.41382 19.0906 3.67651 18.3533 3.29077 17.3914C2.71948 15.9509 2.85132 12.533 2.85132 10.9412C2.85132 9.34937 2.72437 5.92651 3.29077 4.49097C3.67163 3.53394 4.40894 2.79663 5.37085 2.41089C6.81128 1.8396 10.2292 1.97144 11.821 1.97144C13.4128 1.97144 16.8357 1.84448 18.2712 2.41089C19.2283 2.79175 19.9656 3.52905 20.3513 4.49097C20.9226 5.9314 20.7908 9.34937 20.7908 10.9412C20.7908 12.533 20.9226 15.9558 20.3513 17.3914Z" fill="#2B303A"/>
</svg>
