<svg width="26" height="22" viewBox="0 0 26 22" fill="none" xmlns="http://www.w3.org/2000/svg">
<path d="M23.1924 5.84932C23.2083 6.07139 23.2083 6.29351 23.2083 6.51558C23.2083 13.289 18.0528 21.0936 8.63022 21.0936C5.72729 21.0936 3.03062 20.2528 0.762207 18.7935C1.17466 18.8411 1.57119 18.8569 1.99951 18.8569C4.39478 18.8569 6.59976 18.0479 8.36055 16.6679C6.10801 16.6203 4.22031 15.145 3.56992 13.1146C3.88721 13.1621 4.20444 13.1938 4.5376 13.1938C4.99761 13.1938 5.45767 13.1304 5.88594 13.0194C3.53823 12.5435 1.77739 10.4813 1.77739 7.99082V7.92739C2.45947 8.3081 3.25269 8.54604 4.09336 8.57773C2.71328 7.65767 1.80913 6.08726 1.80913 4.3106C1.80913 3.35884 2.06289 2.48638 2.50708 1.72495C5.0293 4.83408 8.82056 6.8645 13.0718 7.08662C12.9925 6.70591 12.9449 6.30938 12.9449 5.91279C12.9449 3.08916 15.2291 0.789062 18.0686 0.789062C19.5438 0.789062 20.8763 1.40771 21.8123 2.40708C22.9702 2.18501 24.0806 1.75669 25.0642 1.16978C24.6834 2.35952 23.8744 3.35889 22.8116 3.99336C23.8427 3.88237 24.8421 3.59678 25.7621 3.20024C25.0643 4.21543 24.1917 5.11958 23.1924 5.84932Z" fill="#2B303A"/>
</svg>
