<svg width="256" height="58" viewBox="0 0 256 58"  xmlns="http://www.w3.org/2000/svg">
<path d="M70.68 35.4C69.88 35.4 69.24 35.1867 68.76 34.76C68.28 34.3333 68.04 33.7467 68.04 33V17.92C68.04 14.3733 69.1467 11.6 71.36 9.6C73.5733 7.6 76.64 6.6 80.56 6.6C84.48 6.6 87.5467 7.6 89.76 9.6C91.9733 11.6 93.08 14.3733 93.08 17.92V33C93.08 33.7467 92.84 34.3333 92.36 34.76C91.88 35.1867 91.24 35.4 90.44 35.4C89.64 35.4 88.9867 35.1867 88.48 34.76C88 34.3067 87.76 33.72 87.76 33V17.8C87.76 15.5333 87.1467 13.8 85.92 12.6C84.6933 11.4 82.9067 10.8 80.56 10.8C78.2133 10.8 76.4267 11.4 75.2 12.6C73.9733 13.8 73.36 15.5333 73.36 17.8V33C73.36 33.72 73.1067 34.3067 72.6 34.76C72.12 35.1867 71.48 35.4 70.68 35.4ZM107.862 35.4C105.568 35.4 103.568 34.9867 101.862 34.16C100.155 33.3333 98.8349 32.1733 97.9016 30.68C96.9949 29.16 96.5416 27.3867 96.5416 25.36C96.5416 22.08 97.4882 19.5333 99.3816 17.72C101.302 15.9067 103.995 15 107.462 15C109.595 15 111.475 15.3333 113.102 16C114.755 16.6667 116.035 17.6 116.942 18.8C117.875 19.9733 118.342 21.32 118.342 22.84C118.342 24.12 117.928 25.1067 117.102 25.8C116.302 26.4933 115.155 26.84 113.662 26.84H101.622C101.622 28.3333 102.142 29.4667 103.182 30.24C104.248 30.9867 105.808 31.36 107.862 31.36C110.022 31.36 111.862 30.88 113.382 29.92C114.235 29.3867 114.902 29.12 115.382 29.12C115.835 29.12 116.275 29.3333 116.702 29.76C117.155 30.2133 117.382 30.7067 117.382 31.24C117.382 31.88 117.115 32.3867 116.582 32.76C115.462 33.6133 114.155 34.2667 112.662 34.72C111.168 35.1733 109.568 35.4 107.862 35.4ZM112.062 23.16C112.515 23.16 112.835 23.08 113.022 22.92C113.208 22.7333 113.302 22.44 113.302 22.04C113.302 21.1067 112.768 20.3733 111.702 19.84C110.662 19.3067 109.248 19.04 107.462 19.04C105.675 19.04 104.262 19.4133 103.222 20.16C102.208 20.9067 101.702 21.9067 101.702 23.16H112.062ZM129.709 35.4C126.749 35.4 124.869 33.64 124.069 30.12L121.309 17.72C121.256 17.4 121.229 17.1867 121.229 17.08C121.229 16.4133 121.456 15.9067 121.909 15.56C122.389 15.1867 123.056 15 123.909 15C124.762 15 125.456 15.1867 125.989 15.56C126.522 15.9333 126.842 16.4533 126.949 17.12L129.149 30.4C129.229 30.96 129.416 31.24 129.709 31.24C130.029 31.24 130.229 30.9733 130.309 30.44L131.829 19.4C132.042 17.9867 132.562 16.9067 133.389 16.16C134.216 15.3867 135.282 15 136.589 15C137.896 15 138.962 15.3867 139.789 16.16C140.616 16.9067 141.136 17.9867 141.349 19.4L142.869 30.44C142.949 30.9733 143.149 31.24 143.469 31.24C143.762 31.24 143.949 30.96 144.029 30.4L146.229 17.12C146.336 16.4533 146.656 15.9333 147.189 15.56C147.722 15.1867 148.416 15 149.269 15C150.122 15 150.776 15.1867 151.229 15.56C151.709 15.9067 151.949 16.4133 151.949 17.08C151.949 17.1867 151.922 17.4 151.869 17.72L149.109 30.12C148.309 33.64 146.429 35.4 143.469 35.4C142.002 35.4 140.869 34.9467 140.069 34.04C139.269 33.1333 138.736 31.72 138.469 29.8L137.149 19.96C137.122 19.6667 137.056 19.4667 136.949 19.36C136.869 19.2267 136.749 19.16 136.589 19.16C136.429 19.16 136.296 19.2267 136.189 19.36C136.109 19.4667 136.056 19.6667 136.029 19.96L134.709 29.8C134.442 31.72 133.909 33.1333 133.109 34.04C132.309 34.9467 131.176 35.4 129.709 35.4ZM158.063 35.4C157.263 35.4 156.623 35.1867 156.143 34.76C155.663 34.3333 155.423 33.7467 155.423 33V17.92C155.423 14.3733 156.529 11.6 158.743 9.6C160.956 7.6 164.023 6.6 167.943 6.6C171.863 6.6 174.929 7.6 177.143 9.6C179.356 11.6 180.463 14.3733 180.463 17.92V33C180.463 33.7467 180.223 34.3333 179.743 34.76C179.263 35.1867 178.623 35.4 177.823 35.4C177.023 35.4 176.369 35.1867 175.863 34.76C175.383 34.3067 175.143 33.72 175.143 33V17.8C175.143 15.5333 174.529 13.8 173.303 12.6C172.076 11.4 170.289 10.8 167.943 10.8C165.596 10.8 163.809 11.4 162.583 12.6C161.356 13.8 160.743 15.5333 160.743 17.8V33C160.743 33.72 160.489 34.3067 159.983 34.76C159.503 35.1867 158.863 35.4 158.063 35.4ZM195.844 35.4C193.524 35.4 191.458 34.9867 189.644 34.16C187.858 33.3067 186.458 32.1067 185.444 30.56C184.431 29.0133 183.924 27.2267 183.924 25.2C183.924 23.1733 184.431 21.3867 185.444 19.84C186.458 18.2933 187.858 17.1067 189.644 16.28C191.458 15.4267 193.524 15 195.844 15C198.164 15 200.218 15.4267 202.004 16.28C203.818 17.1067 205.231 18.2933 206.244 19.84C207.258 21.3867 207.764 23.1733 207.764 25.2C207.764 27.2267 207.258 29.0133 206.244 30.56C205.231 32.1067 203.818 33.3067 202.004 34.16C200.218 34.9867 198.164 35.4 195.844 35.4ZM195.844 31.24C197.898 31.24 199.511 30.7067 200.684 29.64C201.884 28.5733 202.484 27.0933 202.484 25.2C202.484 23.3067 201.884 21.8267 200.684 20.76C199.511 19.6933 197.898 19.16 195.844 19.16C193.791 19.16 192.164 19.6933 190.964 20.76C189.791 21.8267 189.204 23.3067 189.204 25.2C189.204 27.0933 189.791 28.5733 190.964 29.64C192.164 30.7067 193.791 31.24 195.844 31.24ZM220.197 35.4C217.024 35.4 214.824 33.6267 213.597 30.08L209.357 17.92C209.277 17.68 209.237 17.4533 209.237 17.24C209.237 16.6267 209.504 16.1067 210.037 15.68C210.597 15.2533 211.317 15.04 212.197 15.04C212.73 15.04 213.184 15.16 213.557 15.4C213.93 15.64 214.197 15.9733 214.357 16.4L218.837 29.4C219.05 30.0667 219.264 30.5467 219.477 30.84C219.69 31.1067 219.93 31.24 220.197 31.24C220.464 31.24 220.704 31.1067 220.917 30.84C221.13 30.5467 221.344 30.0667 221.557 29.4L226.037 16.4C226.197 15.9733 226.464 15.64 226.837 15.4C227.21 15.16 227.664 15.04 228.197 15.04C229.104 15.04 229.824 15.2533 230.357 15.68C230.89 16.08 231.157 16.6 231.157 17.24C231.157 17.4533 231.117 17.68 231.037 17.92L226.797 30.08C225.57 33.6267 223.37 35.4 220.197 35.4ZM240.645 35.4C238.991 35.4 237.525 35.12 236.245 34.56C234.991 34 234.005 33.2267 233.285 32.24C232.591 31.2267 232.245 30.0667 232.245 28.76C232.245 26.7867 233.058 25.2133 234.685 24.04C236.338 22.8667 238.565 22.28 241.365 22.28C243.791 22.28 245.738 22.8 247.205 23.84V22.88C247.205 21.6267 246.818 20.6667 246.045 20C245.271 19.3333 244.151 19 242.685 19C240.498 19 238.618 19.4667 237.045 20.4C236.378 20.7733 235.805 20.96 235.325 20.96C234.738 20.96 234.218 20.6933 233.765 20.16C233.471 19.7867 233.325 19.4 233.325 19C233.325 18.3333 233.671 17.7467 234.365 17.24C235.325 16.5467 236.538 16 238.005 15.6C239.471 15.2 241.018 15 242.645 15C245.738 15 248.165 15.7067 249.925 17.12C251.711 18.5067 252.605 20.4267 252.605 22.88V33.16C252.605 33.8533 252.365 34.4 251.885 34.8C251.431 35.2 250.805 35.4 250.005 35.4C249.178 35.4 248.538 35.2133 248.085 34.84C247.631 34.4667 247.405 33.9333 247.405 33.24V32.8C245.885 34.5333 243.631 35.4 240.645 35.4ZM241.885 31.72C243.565 31.72 244.871 31.4667 245.805 30.96C246.765 30.4267 247.245 29.6933 247.245 28.76C247.245 27.88 246.765 27.1733 245.805 26.64C244.845 26.1067 243.565 25.84 241.965 25.84C240.525 25.84 239.405 26.0933 238.605 26.6C237.831 27.1067 237.445 27.8267 237.445 28.76C237.445 29.6933 237.831 30.4267 238.605 30.96C239.378 31.4667 240.471 31.72 241.885 31.72Z" />
<ellipse cx="243" cy="44.2098" rx="4" ry="3.92982" transform="rotate(180 243 44.2098)" />
<ellipse cx="229" cy="44.7011" rx="2" ry="2.45614" transform="rotate(180 229 44.7011)" />
<ellipse cx="4" cy="3.92982" rx="4" ry="3.92982" transform="matrix(1 0 0 -1 69 48.1396)" />
<ellipse cx="2" cy="2.45614" rx="2" ry="2.45614" transform="matrix(1 0 0 -1 86 47.1572)" />
<path d="M99.9307 48.096C99.2987 48.096 98.6867 48 98.0947 47.808C97.5107 47.608 97.0507 47.352 96.7147 47.04L97.1587 46.104C97.4787 46.392 97.8867 46.628 98.3827 46.812C98.8867 46.988 99.4027 47.076 99.9307 47.076C100.627 47.076 101.147 46.96 101.491 46.728C101.835 46.488 102.007 46.172 102.007 45.78C102.007 45.492 101.911 45.26 101.719 45.084C101.535 44.9 101.303 44.76 101.023 44.664C100.751 44.568 100.363 44.46 99.8587 44.34C99.2267 44.188 98.7147 44.036 98.3227 43.884C97.9387 43.732 97.6067 43.5 97.3267 43.188C97.0547 42.868 96.9187 42.44 96.9187 41.904C96.9187 41.456 97.0347 41.052 97.2667 40.692C97.5067 40.332 97.8667 40.044 98.3467 39.828C98.8267 39.612 99.4227 39.504 100.135 39.504C100.631 39.504 101.119 39.568 101.599 39.696C102.079 39.824 102.491 40.008 102.835 40.248L102.439 41.208C102.087 40.984 101.711 40.816 101.311 40.704C100.911 40.584 100.519 40.524 100.135 40.524C99.4547 40.524 98.9427 40.648 98.5987 40.896C98.2627 41.144 98.0947 41.464 98.0947 41.856C98.0947 42.144 98.1907 42.38 98.3827 42.564C98.5747 42.74 98.8107 42.88 99.0907 42.984C99.3787 43.08 99.7667 43.184 100.255 43.296C100.887 43.448 101.395 43.6 101.779 43.752C102.163 43.904 102.491 44.136 102.763 44.448C103.043 44.76 103.183 45.18 103.183 45.708C103.183 46.148 103.063 46.552 102.823 46.92C102.583 47.28 102.219 47.568 101.731 47.784C101.243 47.992 100.643 48.096 99.9307 48.096ZM108.14 41.58C108.756 41.58 109.308 41.716 109.796 41.988C110.284 42.26 110.664 42.64 110.936 43.128C111.216 43.616 111.356 44.18 111.356 44.82C111.356 45.46 111.216 46.028 110.936 46.524C110.664 47.012 110.284 47.392 109.796 47.664C109.308 47.936 108.756 48.072 108.14 48.072C107.684 48.072 107.264 47.984 106.88 47.808C106.504 47.632 106.184 47.376 105.92 47.04V50.328H104.768V41.64H105.872V42.648C106.128 42.296 106.452 42.032 106.844 41.856C107.236 41.672 107.668 41.58 108.14 41.58ZM108.044 47.064C108.452 47.064 108.816 46.972 109.136 46.788C109.464 46.596 109.72 46.332 109.904 45.996C110.096 45.652 110.192 45.26 110.192 44.82C110.192 44.38 110.096 43.992 109.904 43.656C109.72 43.312 109.464 43.048 109.136 42.864C108.816 42.68 108.452 42.588 108.044 42.588C107.644 42.588 107.28 42.684 106.952 42.876C106.632 43.06 106.376 43.32 106.184 43.656C106 43.992 105.908 44.38 105.908 44.82C105.908 45.26 106 45.652 106.184 45.996C106.368 46.332 106.624 46.596 106.952 46.788C107.28 46.972 107.644 47.064 108.044 47.064ZM118.947 41.64V48H117.843V46.992C117.587 47.344 117.263 47.612 116.871 47.796C116.479 47.98 116.047 48.072 115.575 48.072C114.959 48.072 114.407 47.936 113.919 47.664C113.431 47.392 113.047 47.012 112.767 46.524C112.495 46.028 112.359 45.46 112.359 44.82C112.359 44.18 112.495 43.616 112.767 43.128C113.047 42.64 113.431 42.26 113.919 41.988C114.407 41.716 114.959 41.58 115.575 41.58C116.031 41.58 116.451 41.668 116.835 41.844C117.219 42.012 117.539 42.264 117.795 42.6V41.64H118.947ZM115.671 47.064C116.071 47.064 116.435 46.972 116.763 46.788C117.091 46.596 117.347 46.332 117.531 45.996C117.715 45.652 117.807 45.26 117.807 44.82C117.807 44.38 117.715 43.992 117.531 43.656C117.347 43.312 117.091 43.048 116.763 42.864C116.435 42.68 116.071 42.588 115.671 42.588C115.263 42.588 114.895 42.68 114.567 42.864C114.247 43.048 113.991 43.312 113.799 43.656C113.615 43.992 113.523 44.38 113.523 44.82C113.523 45.26 113.615 45.652 113.799 45.996C113.991 46.332 114.247 46.596 114.567 46.788C114.895 46.972 115.263 47.064 115.671 47.064ZM122.231 42.708C122.431 42.34 122.727 42.06 123.119 41.868C123.511 41.676 123.987 41.58 124.547 41.58V42.696C124.483 42.688 124.395 42.684 124.283 42.684C123.659 42.684 123.167 42.872 122.807 43.248C122.455 43.616 122.279 44.144 122.279 44.832V48H121.127V41.64H122.231V42.708ZM128.439 45.036L127.119 46.26V48H125.967V39.096H127.119V44.808L130.587 41.64H131.979L129.303 44.268L132.243 48H130.827L128.439 45.036ZM142.296 41.412C141.48 40.948 140.608 40.672 139.68 40.584V48H138.492V40.584C137.556 40.672 136.68 40.948 135.864 41.412L135.444 40.464C136.516 39.824 137.724 39.504 139.068 39.504C140.428 39.504 141.644 39.824 142.716 40.464L142.296 41.412ZM147.152 41.58C147.96 41.58 148.6 41.816 149.072 42.288C149.552 42.752 149.792 43.436 149.792 44.34V48H148.64V44.472C148.64 43.856 148.492 43.392 148.196 43.08C147.9 42.768 147.476 42.612 146.924 42.612C146.3 42.612 145.808 42.796 145.448 43.164C145.088 43.524 144.908 44.044 144.908 44.724V48H143.756V39.096H144.908V42.54C145.148 42.236 145.46 42 145.844 41.832C146.236 41.664 146.672 41.58 147.152 41.58ZM154.827 47.064C155.587 47.064 156.199 46.808 156.663 46.296L157.287 47.04C157.007 47.376 156.651 47.632 156.219 47.808C155.795 47.984 155.319 48.072 154.791 48.072C154.119 48.072 153.523 47.936 153.003 47.664C152.483 47.384 152.079 46.996 151.791 46.5C151.511 46.004 151.371 45.444 151.371 44.82C151.371 44.204 151.507 43.648 151.779 43.152C152.059 42.656 152.439 42.272 152.919 42C153.407 41.72 153.955 41.58 154.563 41.58C155.139 41.58 155.663 41.712 156.135 41.976C156.607 42.232 156.983 42.596 157.263 43.068C157.543 43.54 157.687 44.084 157.695 44.7L152.643 45.684C152.803 46.124 153.071 46.464 153.447 46.704C153.831 46.944 154.291 47.064 154.827 47.064ZM154.563 42.552C154.163 42.552 153.803 42.644 153.483 42.828C153.171 43.012 152.927 43.272 152.751 43.608C152.575 43.936 152.487 44.32 152.487 44.76V44.88L156.555 44.112C156.451 43.648 156.219 43.272 155.859 42.984C155.499 42.696 155.067 42.552 154.563 42.552ZM165.902 41.58C166.518 41.58 167.07 41.716 167.558 41.988C168.046 42.26 168.426 42.64 168.698 43.128C168.978 43.616 169.118 44.18 169.118 44.82C169.118 45.46 168.978 46.028 168.698 46.524C168.426 47.012 168.046 47.392 167.558 47.664C167.07 47.936 166.518 48.072 165.902 48.072C165.446 48.072 165.026 47.984 164.642 47.808C164.266 47.632 163.946 47.376 163.682 47.04V50.328H162.53V41.64H163.634V42.648C163.89 42.296 164.214 42.032 164.605 41.856C164.998 41.672 165.43 41.58 165.902 41.58ZM165.806 47.064C166.214 47.064 166.578 46.972 166.898 46.788C167.226 46.596 167.482 46.332 167.666 45.996C167.858 45.652 167.954 45.26 167.954 44.82C167.954 44.38 167.858 43.992 167.666 43.656C167.482 43.312 167.226 43.048 166.898 42.864C166.578 42.68 166.214 42.588 165.806 42.588C165.406 42.588 165.042 42.684 164.714 42.876C164.394 43.06 164.138 43.32 163.946 43.656C163.762 43.992 163.67 44.38 163.67 44.82C163.67 45.26 163.762 45.652 163.946 45.996C164.13 46.332 164.386 46.596 164.714 46.788C165.042 46.972 165.406 47.064 165.806 47.064ZM173.433 48.072C172.801 48.072 172.233 47.932 171.729 47.652C171.225 47.372 170.829 46.988 170.541 46.5C170.261 46.004 170.121 45.444 170.121 44.82C170.121 44.196 170.261 43.64 170.541 43.152C170.829 42.656 171.225 42.272 171.729 42C172.233 41.72 172.801 41.58 173.433 41.58C174.065 41.58 174.629 41.72 175.125 42C175.629 42.272 176.021 42.656 176.301 43.152C176.589 43.64 176.733 44.196 176.733 44.82C176.733 45.444 176.589 46.004 176.301 46.5C176.021 46.988 175.629 47.372 175.125 47.652C174.629 47.932 174.065 48.072 173.433 48.072ZM173.433 47.064C173.841 47.064 174.205 46.972 174.525 46.788C174.853 46.596 175.109 46.332 175.293 45.996C175.477 45.652 175.569 45.26 175.569 44.82C175.569 44.38 175.477 43.992 175.293 43.656C175.109 43.312 174.853 43.048 174.525 42.864C174.205 42.68 173.841 42.588 173.433 42.588C173.025 42.588 172.657 42.68 172.329 42.864C172.009 43.048 171.753 43.312 171.561 43.656C171.377 43.992 171.285 44.38 171.285 44.82C171.285 45.26 171.377 45.652 171.561 45.996C171.753 46.332 172.009 46.596 172.329 46.788C172.657 46.972 173.025 47.064 173.433 47.064ZM181.674 47.628C181.506 47.772 181.298 47.884 181.05 47.964C180.802 48.036 180.546 48.072 180.282 48.072C179.642 48.072 179.146 47.9 178.794 47.556C178.442 47.212 178.266 46.72 178.266 46.08V40.248H179.418V41.64H181.242V42.588H179.418V46.032C179.418 46.376 179.502 46.64 179.67 46.824C179.846 47.008 180.094 47.1 180.414 47.1C180.766 47.1 181.066 47 181.314 46.8L181.674 47.628ZM185.718 47.064C186.478 47.064 187.09 46.808 187.554 46.296L188.178 47.04C187.898 47.376 187.542 47.632 187.11 47.808C186.686 47.984 186.21 48.072 185.682 48.072C185.01 48.072 184.414 47.936 183.894 47.664C183.374 47.384 182.97 46.996 182.682 46.5C182.402 46.004 182.262 45.444 182.262 44.82C182.262 44.204 182.398 43.648 182.67 43.152C182.95 42.656 183.33 42.272 183.81 42C184.298 41.72 184.846 41.58 185.454 41.58C186.03 41.58 186.554 41.712 187.026 41.976C187.498 42.232 187.874 42.596 188.154 43.068C188.434 43.54 188.578 44.084 188.586 44.7L183.534 45.684C183.694 46.124 183.962 46.464 184.338 46.704C184.722 46.944 185.182 47.064 185.718 47.064ZM185.454 42.552C185.054 42.552 184.694 42.644 184.374 42.828C184.062 43.012 183.818 43.272 183.642 43.608C183.466 43.936 183.378 44.32 183.378 44.76V44.88L187.446 44.112C187.342 43.648 187.11 43.272 186.75 42.984C186.39 42.696 185.958 42.552 185.454 42.552ZM193.593 41.58C194.401 41.58 195.041 41.816 195.513 42.288C195.993 42.752 196.233 43.436 196.233 44.34V48H195.081V44.472C195.081 43.856 194.933 43.392 194.637 43.08C194.341 42.768 193.917 42.612 193.365 42.612C192.741 42.612 192.249 42.796 191.889 43.164C191.529 43.524 191.349 44.044 191.349 44.724V48H190.197V41.64H191.301V42.6C191.533 42.272 191.845 42.02 192.237 41.844C192.637 41.668 193.089 41.58 193.593 41.58ZM201.713 47.628C201.545 47.772 201.337 47.884 201.089 47.964C200.841 48.036 200.585 48.072 200.321 48.072C199.681 48.072 199.185 47.9 198.833 47.556C198.481 47.212 198.305 46.72 198.305 46.08V40.248H199.457V41.64H201.281V42.588H199.457V46.032C199.457 46.376 199.541 46.64 199.709 46.824C199.885 47.008 200.133 47.1 200.453 47.1C200.805 47.1 201.105 47 201.353 46.8L201.713 47.628ZM203.1 41.64H204.252V48H203.1V41.64ZM203.676 40.416C203.452 40.416 203.264 40.344 203.112 40.2C202.968 40.056 202.896 39.88 202.896 39.672C202.896 39.464 202.968 39.288 203.112 39.144C203.264 38.992 203.452 38.916 203.676 38.916C203.9 38.916 204.084 38.988 204.228 39.132C204.38 39.268 204.456 39.44 204.456 39.648C204.456 39.864 204.38 40.048 204.228 40.2C204.084 40.344 203.9 40.416 203.676 40.416ZM212.451 41.64V48H211.347V46.992C211.091 47.344 210.767 47.612 210.375 47.796C209.983 47.98 209.551 48.072 209.079 48.072C208.463 48.072 207.911 47.936 207.423 47.664C206.935 47.392 206.551 47.012 206.271 46.524C205.999 46.028 205.863 45.46 205.863 44.82C205.863 44.18 205.999 43.616 206.271 43.128C206.551 42.64 206.935 42.26 207.423 41.988C207.911 41.716 208.463 41.58 209.079 41.58C209.535 41.58 209.955 41.668 210.339 41.844C210.723 42.012 211.043 42.264 211.299 42.6V41.64H212.451ZM209.175 47.064C209.575 47.064 209.939 46.972 210.267 46.788C210.595 46.596 210.851 46.332 211.035 45.996C211.219 45.652 211.311 45.26 211.311 44.82C211.311 44.38 211.219 43.992 211.035 43.656C210.851 43.312 210.595 43.048 210.267 42.864C209.939 42.68 209.575 42.588 209.175 42.588C208.767 42.588 208.399 42.68 208.071 42.864C207.751 43.048 207.495 43.312 207.303 43.656C207.119 43.992 207.027 44.38 207.027 44.82C207.027 45.26 207.119 45.652 207.303 45.996C207.495 46.332 207.751 46.596 208.071 46.788C208.399 46.972 208.767 47.064 209.175 47.064ZM216.563 48.072C215.947 48.072 215.471 47.904 215.135 47.568C214.799 47.224 214.631 46.744 214.631 46.128V39.096H215.783V46.032C215.783 46.376 215.863 46.64 216.023 46.824C216.191 47.008 216.439 47.1 216.767 47.1C216.967 47.1 217.155 47.06 217.331 46.98L217.391 47.928C217.127 48.024 216.851 48.072 216.563 48.072Z" />
<path d="M28.5 0C12.7637 0 0 12.7637 0 28.5129C0 44.2621 12.765 57.0129 28.5 57.0129C44.235 57.0129 57 44.2479 57 28.5129C57 12.7779 44.2363 0 28.5 0ZM22.4024 40.1669C22.4024 42.053 20.878 43.5774 18.9918 43.5774C17.1057 43.5774 15.5942 42.053 15.5942 40.1669C15.5942 39.7018 15.6846 39.2626 15.8526 38.8621L11.1243 33.4233C9.41904 31.4468 9.47072 28.5013 11.2535 26.5893L15.7234 21.8094C15.633 21.5123 15.5942 21.2022 15.5942 20.8792C15.5942 18.9931 17.1186 17.4687 18.9918 17.4687C20.865 17.4687 22.4024 18.9931 22.4024 20.8792C22.4024 22.7654 20.878 24.2769 18.9918 24.2769C18.7076 24.2769 18.4234 24.2381 18.165 24.1735L13.7339 28.9147C13.1396 29.5477 13.1267 30.5295 13.6951 31.1884L18.5655 36.7951C18.7076 36.7693 18.8497 36.7693 18.9918 36.7693C19.1856 36.7693 19.3794 36.7822 19.5732 36.808L33.4104 14.1473C33.0745 13.6176 32.9066 12.9459 33.0099 12.2612C33.2166 10.7497 34.6248 9.69034 36.1363 9.90996C37.6607 10.1296 38.7071 11.5248 38.5004 13.0492C38.2808 14.5607 36.8726 15.62 35.3611 15.4004H35.3224L21.5497 37.919C22.0794 38.5262 22.4024 39.3143 22.4024 40.1669ZM46.1612 33.4233L41.4329 38.8621C41.6009 39.2626 41.6913 39.7018 41.6913 40.1669C41.6913 42.053 40.1669 43.5774 38.2937 43.5774C36.4205 43.5774 34.8831 42.053 34.8831 40.1669C34.8831 38.2808 36.4076 36.7693 38.2937 36.7693C38.4358 36.7693 38.5779 36.7693 38.72 36.7951L43.5904 31.1884C44.1588 30.5295 44.1329 29.5477 43.5387 28.9147L39.1205 24.1735C38.8492 24.2381 38.5779 24.2769 38.2937 24.2769C36.4076 24.2769 34.8831 22.7525 34.8831 20.8792C34.8831 19.006 36.4076 17.4687 38.2937 17.4687C40.1798 17.4687 41.6913 18.9931 41.6913 20.8792C41.6913 21.2022 41.6525 21.5123 41.5621 21.8094L46.032 26.5893C47.8148 28.5013 47.8665 31.4468 46.1612 33.4233Z" />
</svg>
