<svg width="32" height="32" viewBox="0 0 32 32"  xmlns="http://www.w3.org/2000/svg">
<g clip-path="url(#clip0_9_27)">
<path d="M16 0.912136C7.67111 0.912136 0.915558 7.66769 0.915558 16.0034C0.915558 24.3391 7.6718 31.0879 16 31.0879C24.3282 31.0879 31.0844 24.3316 31.0844 16.0034C31.0844 7.67521 24.3289 0.912136 16 0.912136ZM12.7727 22.1716C12.7727 23.1699 11.9658 23.9768 10.9675 23.9768C9.96923 23.9768 9.16923 23.1699 9.16923 22.1716C9.16923 21.9255 9.2171 21.693 9.30599 21.481L6.80342 18.6024C5.90086 17.5562 5.92821 15.9973 6.8718 14.9853L9.23761 12.4554C9.18975 12.2981 9.16923 12.134 9.16923 11.9631C9.16923 10.9648 9.97607 10.1579 10.9675 10.1579C11.959 10.1579 12.7727 10.9648 12.7727 11.9631C12.7727 12.9614 11.9658 13.7614 10.9675 13.7614C10.8171 13.7614 10.6667 13.7409 10.5299 13.7067L8.18462 16.2161C7.87009 16.5511 7.86325 17.0708 8.1641 17.4195L10.7419 20.387C10.8171 20.3733 10.8923 20.3733 10.9675 20.3733C11.0701 20.3733 11.1727 20.3802 11.2752 20.3938L18.599 8.4C18.4212 8.11966 18.3323 7.7641 18.387 7.40171C18.4964 6.60171 19.2417 6.04103 20.0417 6.15726C20.8485 6.2735 21.4024 7.01196 21.293 7.8188C21.1768 8.6188 20.4315 9.17949 19.6315 9.06325H19.6109L12.3214 20.9819C12.6017 21.3032 12.7727 21.7203 12.7727 22.1716ZM25.3477 18.6024L22.8451 21.481C22.934 21.693 22.9819 21.9255 22.9819 22.1716C22.9819 23.1699 22.175 23.9768 21.1836 23.9768C20.1921 23.9768 19.3785 23.1699 19.3785 22.1716C19.3785 21.1733 20.1853 20.3733 21.1836 20.3733C21.2588 20.3733 21.334 20.3733 21.4092 20.387L23.987 17.4195C24.2879 17.0708 24.2742 16.5511 23.9597 16.2161L21.6212 13.7067C21.4776 13.7409 21.334 13.7614 21.1836 13.7614C20.1853 13.7614 19.3785 12.9545 19.3785 11.9631C19.3785 10.9716 20.1853 10.1579 21.1836 10.1579C22.1819 10.1579 22.9819 10.9648 22.9819 11.9631C22.9819 12.134 22.9614 12.2981 22.9135 12.4554L25.2793 14.9853C26.2229 15.9973 26.2503 17.5562 25.3477 18.6024Z" />
</g>
<defs>
<clipPath id="clip0_9_27">
<rect width="32" height="32" />
</clipPath>
</defs>
</svg>
