<svg width="24" height="24" viewBox="0 0 24 24" fill="none" xmlns="http://www.w3.org/2000/svg">
<g clip-path="url(#clip0_4521_8157)">
<path d="M22.5 22C23.3284 22 24 21.3284 24 20.5C24 19.6716 23.3284 19 22.5 19L1.5 19C0.671573 19 -2.03558e-07 19.6716 -1.31134e-07 20.5C-5.87108e-08 21.3284 0.671574 22 1.5 22L22.5 22ZM22.5 16C23.3284 16 24 15.3284 24 14.5C24 13.6716 23.3284 13 22.5 13L7.5 13C6.67157 13 6 13.6716 6 14.5C6 15.3284 6.67157 16 7.5 16L22.5 16ZM22.5 10C23.3284 10 24 9.32843 24 8.5C24 7.67157 23.3284 7 22.5 7L1.5 7C0.671572 7 -1.25263e-06 7.67157 -1.18021e-06 8.5C-1.10778e-06 9.32843 0.671573 10 1.5 10L22.5 10ZM22.5 4C23.3284 4 24 3.32843 24 2.5C24 1.67157 23.3284 1 22.5 1L7.5 1C6.67157 1 6 1.67158 6 2.5C6 3.32843 6.67157 4 7.5 4L22.5 4Z" fill="black"/>
</g>
<defs>
<clipPath id="clip0_4521_8157">
<rect x="24" y="24" width="24" height="24" rx="2" transform="rotate(180 24 24)" fill="white"/>
</clipPath>
</defs>
</svg>
