<svg width="32" height="32" viewBox="0 0 32 32" fill="none" xmlns="http://www.w3.org/2000/svg">
<g clip-path="url(#clip0_4663_8260)">
<path d="M16.0005 0.912109C7.67157 0.912109 0.916016 7.66766 0.916016 16.0034C0.916016 24.3391 7.67225 31.0878 16.0005 31.0878C24.3287 31.0878 31.0849 24.3316 31.0849 16.0034C31.0849 7.67519 24.3293 0.912109 16.0005 0.912109ZM12.7731 22.1716C12.7731 23.1699 11.9663 23.9767 10.968 23.9767C9.96969 23.9767 9.16969 23.1699 9.16969 22.1716C9.16969 21.9254 9.21755 21.693 9.30644 21.481L6.80388 18.6024C5.90131 17.5562 5.92867 15.9972 6.87225 14.9853L9.23807 12.4554C9.1902 12.2981 9.16969 12.134 9.16969 11.963C9.16969 10.9648 9.97653 10.1579 10.968 10.1579C11.9594 10.1579 12.7731 10.9648 12.7731 11.963C12.7731 12.9613 11.9663 13.7613 10.968 13.7613C10.8176 13.7613 10.6671 13.7408 10.5304 13.7066L8.18507 16.216C7.87054 16.5511 7.86371 17.0707 8.16456 17.4195L10.7423 20.387C10.8176 20.3733 10.8928 20.3733 10.968 20.3733C11.0705 20.3733 11.1731 20.3801 11.2757 20.3938L18.5994 8.39997C18.4217 8.11963 18.3328 7.76408 18.3875 7.40168C18.4969 6.60168 19.2422 6.041 20.0422 6.15724C20.849 6.27348 21.4029 7.01194 21.2934 7.81878C21.1772 8.61878 20.4319 9.17946 19.6319 9.06322H19.6114L12.3218 20.9819C12.6022 21.3032 12.7731 21.7203 12.7731 22.1716ZM25.3482 18.6024L22.8456 21.481C22.9345 21.693 22.9823 21.9254 22.9823 22.1716C22.9823 23.1699 22.1755 23.9767 21.184 23.9767C20.1926 23.9767 19.3789 23.1699 19.3789 22.1716C19.3789 21.1733 20.1858 20.3733 21.184 20.3733C21.2593 20.3733 21.3345 20.3733 21.4097 20.387L23.9875 17.4195C24.2883 17.0707 24.2746 16.5511 23.9601 16.216L21.6217 13.7066C21.4781 13.7408 21.3345 13.7613 21.184 13.7613C20.1858 13.7613 19.3789 12.9545 19.3789 11.963C19.3789 10.9716 20.1858 10.1579 21.184 10.1579C22.1823 10.1579 22.9823 10.9648 22.9823 11.963C22.9823 12.134 22.9618 12.2981 22.914 12.4554L25.2798 14.9853C26.2234 15.9972 26.2507 17.5562 25.3482 18.6024Z" fill="#2B303A"/>
</g>
<defs>
<clipPath id="clip0_4663_8260">
<rect width="32" height="32" fill="white"/>
</clipPath>
</defs>
</svg>
