<svg width="30" height="30" viewBox="0 0 30 30" fill="none" xmlns="http://www.w3.org/2000/svg">
<path d="M15 7C14.44 7 14 7.44 14 8C14 8.56 14.44 9 15 9C15.56 9 16 8.56 16 8C16 7.44 15.56 7 15 7ZM10 9C9.44 9 9 9.44 9 10C9 10.56 9.44 11 10 11C10.56 11 11 10.56 11 10C11 9.44 10.56 9 10 9ZM20 9C19.44 9 19 9.44 19 10C19 10.56 19.44 11 20 11C20.56 11 21 10.56 21 10C21 9.44 20.56 9 20 9ZM15 11C12.8 11 11 12.8 11 15C11 17.2 12.8 19 15 19C17.2 19 19 17.2 19 15C19 12.8 17.2 11 15 11ZM8 14C7.44 14 7 14.44 7 15C7 15.56 7.44 16 8 16C8.56 16 9 15.56 9 15C9 14.44 8.56 14 8 14ZM22 14C21.44 14 21 14.44 21 15C21 15.56 21.44 16 22 16C22.56 16 23 15.56 23 15C23 14.44 22.56 14 22 14ZM10 19C9.44 19 9 19.44 9 20C9 20.56 9.44 21 10 21C10.56 21 11 20.56 11 20C11 19.44 10.56 19 10 19ZM20 19C19.44 19 19 19.44 19 20C19 20.56 19.44 21 20 21C20.56 21 21 20.56 21 20C21 19.44 20.56 19 20 19ZM15 21C14.44 21 14 21.44 14 22C14 22.56 14.44 23 15 23C15.56 23 16 22.56 16 22C16 21.44 15.56 21 15 21Z" fill="#6044B5"/>
<rect x="1" y="1" width="28" height="28" rx="7" stroke="#9E8BEB" stroke-width="2"/>
</svg>
